<svg style="overflow: visible" width="26" height="45" viewBox="0 0 26 45" fill="none" xmlns="http://www.w3.org/2000/svg">
<path d="M23 15C23 20.4814 18.3413 25 12.5 25C6.65865 25 2 20.4814 2 15C2 9.51858 6.65865 5 12.5 5C18.3413 5 23 9.51858 23 15Z" stroke="#2e2e2e" stroke-width="2" stroke-miterlimit="10"/>
<path d="M12.5 26C18.9313 26 24 30.7572 24 36.4286V44H1V36.4286C1 30.7572 6.06873 26 12.5 26Z" stroke="#2e2e2e" stroke-width="2" stroke-miterlimit="10"/>
<path d="M19.1219 11.1661H19.3091C21.2595 11.2655 22.8387 12.9112 22.8387 14.9631V17.0065C22.8387 17.0655 22.8359 17.1252 22.8313 17.2154C22.7115 19.029 20.7836 20.1868 19.0941 19.4597L19.0933 19.4593L15.911 18.0928C13.98 17.2612 11.8045 17.2324 9.85383 18.0204C9.85352 18.0205 9.85322 18.0207 9.85291 18.0208L5.82858 19.6395L5.8276 19.6399C4.71904 20.087 3.46708 19.7633 2.78102 18.8612L2.77963 18.8594C2.39274 18.3528 2.16129 17.7136 2.16129 17.0113V14.9679C2.16129 12.8467 3.84176 11.1661 5.87808 11.1661H19.1219Z" stroke="#2e2e2e" stroke-width="2"/>
<path d="M8 5.5H17L21.5 10.5H4L8 5.5Z" fill="#2e2e2e"/>
</svg>
