<svg width="47" height="36" viewBox="0 0 47 36" fill="none" xmlns="http://www.w3.org/2000/svg">
<g clip-path="url(#clip0_456_2647)">
<path d="M37.909 31.6363C37.909 33.494 36.4031 35 34.5454 35C32.6877 35 31.1818 33.494 31.1818 31.6363C31.1818 29.7787 32.6877 28.2727 34.5454 28.2727C36.4031 28.2727 37.909 29.7787 37.909 31.6363Z" stroke="#2E2E2E" stroke-width="2"/>
<path fill-rule="evenodd" clip-rule="evenodd" d="M1.27281 0.000190258H5.63644C5.9602 0.000190258 6.26724 0.143997 6.4745 0.392716L8.87467 3.27292H44.1075C44.7873 3.27292 45.4351 3.52024 45.8996 3.96823C46.3715 4.42334 46.671 5.11852 46.4953 5.88448C46.4829 5.93853 46.4664 5.99157 46.446 6.04311L40.2619 21.6213L40.2607 21.6243C39.6507 23.1476 37.9956 24.0002 36.3483 24.0002H16.5791H16.5715H16.5639H16.5563H16.5487H16.5411H16.5336H16.526H16.5185H16.511H16.5035H16.496H16.4885H16.481H16.4735H16.466H16.4586H16.4511H16.4437H16.4362H16.4288H16.4214H16.414H16.4066H16.3992H16.3918H16.3845H16.3771H16.3698H16.3624H16.3551H16.3478H16.3405H16.3332H16.3259H16.3186H16.3114H16.3041H16.2968H16.2896H16.2824H16.2752H16.268H16.2608H16.2536H16.2464H16.2392H16.2321H16.2249H16.2178H16.2106H16.2035H16.1964H16.1893H16.1822H16.1752H16.1681H16.161H16.154H16.1469H16.1399H16.1329H16.1259H16.1189H16.1119H16.1049H16.098H16.091H16.0841H16.0772H16.0702H16.0633H16.0564H16.0495H16.0427H16.0358H16.0289H16.0221H16.0153H16.0084H16.0016H15.9948H15.988H15.9812H15.9745H15.9677H15.961H15.9542H15.9475H15.9408H15.9341H15.9274H15.9207H15.914H15.9074H15.9007H15.8941H15.8875H15.8809H15.8743H15.8677H15.8611H15.8545H15.848H15.8452L17.8114 30.5456L31 30.5456C31.6025 30.5457 32.0909 31.0341 32.0909 31.6366C32.0909 32.2391 31.6025 32.7275 31 32.7275L17 32.7275C16.5184 32.7275 16.0937 32.4116 15.9552 31.9504L13.3371 23.2345L7.39094 4.90055L5.12549 2.18201H1.27281V0.000190258ZM9.86437 5.45474L15.1715 21.8184H15.1754H15.1805H15.1856H15.1907H15.1959H15.201H15.2062H15.2114H15.2166H15.2218H15.227H15.2323H15.2375H15.2428H15.2481H15.2534H15.2587H15.264H15.2693H15.2747H15.28H15.2854H15.2908H15.2962H15.3016H15.3071H15.3125H15.318H15.3234H15.3289H15.3344H15.3399H15.3454H15.351H15.3565H15.3621H15.3677H15.3733H15.3789H15.3845H15.3901H15.3958H15.4014H15.4071H15.4128H15.4184H15.4242H15.4299H15.4356H15.4414H15.4471H15.4529H15.4587H15.4645H15.4703H15.4761H15.4819H15.4878H15.4936H15.4995H15.5054H15.5113H15.5172H15.5231H15.5291H15.535H15.541H15.547H15.5529H15.5589H15.565H15.571H15.577H15.5831H15.5891H15.5952H15.6013H15.6074H15.6135H15.6196H15.6257H15.6319H15.6381H15.6442H15.6504H15.6566H15.6628H15.669H15.6753H15.6815H15.6878H15.694H15.7003H15.7066H15.7129H15.7192H15.7255H15.7319H15.7382H15.7446H15.751H15.7573H15.7637H15.7701H15.7766H15.783H15.7894H15.7959H15.8024H15.8088H15.8153H15.8218H15.8283H15.8349H15.8414H15.848H15.8545H15.8611H15.8677H15.8743H15.8809H15.8875H15.8941H15.9007H15.9074H15.914H15.9207H15.9274H15.9341H15.9408H15.9475H15.9542H15.961H15.9677H15.9745H15.9812H15.988H15.9948H16.0016H16.0084H16.0153H16.0221H16.0289H16.0358H16.0427H16.0495H16.0564H16.0633H16.0702H16.0772H16.0841H16.091H16.098H16.1049H16.1119H16.1189H16.1259H16.1329H16.1399H16.1469H16.154H16.161H16.1681H16.1752H16.1822H16.1893H16.1964H16.2035H16.2106H16.2178H16.2249H16.2321H16.2392H16.2464H16.2536H16.2608H16.268H16.2752H16.2824H16.2896H16.2968H16.3041H16.3114H16.3186H16.3259H16.3332H16.3405H16.3478H16.3551H16.3624H16.3698H16.3771H16.3845H16.3918H16.3992H16.4066H16.414H16.4214H16.4288H16.4362H16.4437H16.4511H16.4586H16.466H16.4735H16.481H16.4885H16.496H16.5035H16.511H16.5185H16.526H16.5336H16.5411H16.5487H16.5563H16.5639H16.5715H16.5791H36.3483C37.3494 21.8184 38.0387 21.3022 38.2348 20.8144C38.2349 20.814 38.2351 20.8136 38.2352 20.8133L44.316 5.49535C44.2689 5.47414 44.1998 5.45474 44.1075 5.45474H9.86437Z" fill="#2E2E2E"/>
<path d="M20.4544 31.6363C20.4544 33.494 18.9485 35 17.0908 35C15.2331 35 13.7272 33.494 13.7272 31.6363C13.7272 29.7787 15.2331 28.2727 17.0908 28.2727C18.9485 28.2727 20.4544 29.7787 20.4544 31.6363Z" fill="#F6F6F6" stroke="#2E2E2E" stroke-width="2"/>
</g>
<defs>
<clipPath id="clip0_456_2647">
<rect width="45.8188" height="36" fill="white" transform="translate(0.727295)"/>
</clipPath>
</defs>
</svg>
