<svg width="700pt" height="700pt" viewBox="200 125 300 300" preserveAspectRatio="none" >
  <path fill="#ffcc00" d="m272.72 424.48 h154.56c36.961 0 67.199-30.238 67.199-67.199l0.003907-43.68c0-6.1602-5.0391-11.199-11.199-11.199s-11.199 5.0391-11.199 11.199v43.68c0 24.641-20.16 44.801-44.801 44.801l-154.56-0.003906c-24.641 0-44.801-20.16-44.801-44.801l0.003906-154.56c0-24.641 20.16-44.801 44.801-44.801l43.676 0.003906c6.1602 0 11.199-5.0391 11.199-11.199s-5.0391-11.199-11.199-11.199h-43.68c-36.961 0-67.199 30.238-67.199 67.199v154.56c0 36.957 30.242 67.199 67.199 67.199z"/>
  <path fill="#ffcc00" d="m423.92 150.08-114.24 114.24c-1.1211 1.1211-2.2383 2.8008-2.8008 5.0391l-15.68 56c-1.6797 6.1602 1.6797 12.32 7.8398 14 1.6797 0.55859 3.9219 0.55859 6.1602 0l56-15.68c1.6797-0.55859 3.3594-1.6797 5.0391-2.8008l114.8-114.24c15.68-15.68 15.68-40.879 0-56.559-15.68-15.684-42-15.684-57.117-0.003906zm-106.4 162.4 5.6016-19.039 14 14zm146.72-122.08-105.84 105.84-24.641-24.641 105.84-105.84c7.2812-6.1602 18.48-5.6016 24.641 1.6797 5.5977 6.7188 5.5977 16.238-0.003907 22.957z"/>
</svg>
