<svg width="208" height="224" viewBox="0 0 208 224" fill="none" xmlns="http://www.w3.org/2000/svg">
<g clip-path="url(#clip0_574_724)">
<path d="M168.375 140.437H131.396M149.834 122.417V159.396M199.313 140.646C199.313 149.917 196.709 158.667 192.125 166.167C187.765 173.49 181.572 179.551 174.156 183.752C166.74 187.954 158.357 190.15 149.834 190.125C141.314 190.128 132.94 187.923 125.528 183.724C118.115 179.525 111.918 173.475 107.542 166.167C102.824 158.491 100.335 149.655 100.354 140.646C100.354 113.354 122.542 91.1665 149.834 91.1665C177.125 91.1665 199.313 113.354 199.313 140.646Z" stroke="#FFCC00" stroke-width="15.625" stroke-miterlimit="10" stroke-linecap="round" stroke-linejoin="round"/>
<path d="M189.521 28.8752V52.0002C189.521 60.4377 184.209 70.9585 179.001 76.271L160.667 92.4168C157.118 91.5725 153.482 91.1529 149.834 91.1668C122.542 91.1668 100.355 113.354 100.355 140.646C100.355 149.917 102.959 158.667 107.542 166.167C111.396 172.625 116.709 178.146 123.167 182.104V185.646C123.167 192 119.001 200.438 113.688 203.563L99.0006 213.042C85.3547 221.479 66.3964 212 66.3964 195.125V139.396C66.3964 132 62.1256 122.521 57.9589 117.313L17.9589 75.2293C12.7506 69.9168 8.47974 60.4377 8.47974 54.1877V29.9168C8.47974 17.3127 17.9589 7.8335 29.5214 7.8335H168.48C180.042 7.8335 189.521 17.3127 189.521 28.8752Z" stroke="#FFCC00" stroke-width="15.625" stroke-miterlimit="10" stroke-linecap="round" stroke-linejoin="round"/>
</g>
<defs>
<clipPath id="clip0_574_724">
<rect width="208" height="224" fill="white"/>
</clipPath>
</defs>
</svg>
