<svg width="223" height="43" viewBox="0 0 223 43" fill="none" xmlns="http://www.w3.org/2000/svg">
<g clip-path="url(#clip0_203_13)">
<path d="M41.08 16.86L49.37 6H53.9L44.81 17.99L54.92 31.64H50.09L42.17 20.93L39.42 24.29V31.65H35.42V6H39.42V16.56C39.42 17.73 39.27 19.28 39.12 20.33C39.69 19.16 40.44 17.73 41.08 16.86Z" fill="#2E2E2E"/>
<path d="M54.9601 23.73C54.9601 19.02 58.7301 15.47 63.5201 15.47C68.3101 15.47 72.0401 19.02 72.0401 23.73C72.0401 28.44 68.3401 31.99 63.5201 31.99C58.7001 31.99 54.9601 28.44 54.9601 23.73ZM68.1201 23.73C68.1201 20.83 66.3501 18.79 63.5201 18.79C60.6901 18.79 58.8801 20.83 58.8801 23.73C58.8801 26.63 60.6901 28.71 63.5201 28.71C66.3501 28.71 68.1201 26.64 68.1201 23.73Z" fill="#2E2E2E"/>
<path d="M75.14 15.81H78.95L78.91 18.79C79.97 16.3 81.78 15.51 83.51 15.51C84.64 15.51 85.43 15.77 86.11 16.19L84.83 19.62C84.23 19.32 83.62 19.09 82.76 19.09C80.5 19.09 78.95 20.41 78.95 23.96V31.65H75.14V15.81Z" fill="#2E2E2E"/>
<path d="M93.1701 30.2201L86.6801 15.8101H90.9001L94.2201 23.7301C94.7501 24.9401 95.1301 27.0101 95.1301 27.0101C95.1301 27.0101 95.4701 24.9401 96.0001 23.7301L99.3901 15.8101H103.35L92.9801 39.6501H89.0601L93.1701 30.2201Z" fill="#2E2E2E"/>
<path d="M107.71 19.96H105.3V16.99H107.71V11.2C107.71 7.68 109.42 6 112.42 6C114.27 6 115.35 6.63 116.19 7.47L114.24 9.84C113.89 9.49 113.51 9.18 112.74 9.18C111.87 9.18 111.24 9.7 111.24 11.17V17H120.73V31.66H117.17V19.96H111.24V31.65H107.72V19.96H107.71ZM116.61 11.31C116.61 9.98 117.69 9.01 118.95 9.01C120.21 9.01 121.29 9.99 121.29 11.31C121.29 12.71 120.21 13.65 118.95 13.65C117.69 13.65 116.61 12.71 116.61 11.31Z" fill="#2E2E2E"/>
<path d="M123.64 26.52L126.85 24.75C128.03 26.71 129.54 28.26 132.61 28.26C135.16 28.26 136.97 26.89 136.97 24.83C136.97 22.65 135.49 21.69 132.76 20.48L131.1 19.74C127.45 18.12 125.23 16.27 125.23 12.4C125.23 8.53001 128.11 6.01001 132.28 6.01001C135.6 6.01001 137.85 7.27001 139.37 9.96001L136.31 11.84C135.35 10.18 134.24 9.40001 132.29 9.40001C130.34 9.40001 129.04 10.62 129.04 12.32C129.04 14.2 130.11 15.05 132.66 16.16L134.28 16.9C138.56 18.78 140.85 20.78 140.85 24.8C140.85 29.19 137.42 31.74 132.69 31.74C127.96 31.74 125.05 29.38 123.65 26.54L123.64 26.52Z" fill="#FFCC00"/>
<path d="M143.98 15.8901H147.74L147.63 18.7701C148.63 16.8501 150.47 15.5601 153.13 15.5601C157.12 15.5601 160.33 18.9201 160.33 23.6101C160.33 28.3001 157.08 31.7301 153.06 31.7301C150.48 31.7301 148.63 30.4801 147.75 28.7401V39.2201H143.99V15.8901H143.98ZM156.49 23.6001C156.49 20.8001 154.79 18.8801 152.1 18.8801C149.41 18.8801 147.6 20.8001 147.6 23.6001C147.6 26.4001 149.37 28.4401 152.1 28.4401C154.83 28.4401 156.49 26.5201 156.49 23.6001Z" fill="#FFCC00"/>
<path d="M162.62 23.6401C162.62 19.0301 166.31 15.5601 171 15.5601C175.69 15.5601 179.34 19.0301 179.34 23.6401C179.34 28.2501 175.72 31.7201 171 31.7201C166.28 31.7201 162.62 28.2501 162.62 23.6401ZM175.5 23.6401C175.5 20.8001 173.77 18.8101 171 18.8101C168.23 18.8101 166.46 20.8001 166.46 23.6401C166.46 26.4801 168.23 28.5101 171 28.5101C173.77 28.5101 175.5 26.4801 175.5 23.6401Z" fill="#FFCC00"/>
<path d="M182.37 15.8901H186.1L186.06 18.8101C187.09 16.3701 188.87 15.6001 190.56 15.6001C191.67 15.6001 192.44 15.8601 193.11 16.2601L191.85 19.6201C191.26 19.3201 190.67 19.1001 189.82 19.1001C187.61 19.1001 186.09 20.3901 186.09 23.8601V31.3901H182.36V15.8901H182.37Z" fill="#FFCC00"/>
<path d="M196.58 26.1501V19.0301H194.26V15.8901H196.58V7.81006H200.31V15.8901H204.44V19.0301H200.31V26.2301C200.31 28.0001 200.9 28.5201 201.86 28.5201C202.75 28.5201 203.3 28.1101 203.71 27.7801L205.48 30.2901C204.7 31.0301 203.49 31.7701 201.49 31.7701C198.57 31.7701 196.58 30.2901 196.58 26.1601V26.1501Z" fill="#FFCC00"/>
<path d="M206.28 28.51L208.83 26.74C209.79 28.11 211.23 28.73 213 28.73C214.88 28.73 215.73 28.1 215.73 27.07C215.73 25.82 214.59 25.63 211.97 24.89C209.68 24.26 207.39 23.19 207.39 20.13C207.39 17.07 209.86 15.55 212.93 15.55C215.4 15.55 217.14 16.58 218.32 17.88L216.14 20.02C215.4 19.17 214.33 18.51 212.93 18.51C211.53 18.51 210.75 19.03 210.75 19.95C210.75 21.13 211.71 21.39 214.14 22.02C216.58 22.65 219.23 23.61 219.23 26.89C219.23 29.55 217.61 31.72 213.21 31.72C209.67 31.72 207.31 30.17 206.27 28.51H206.28Z" fill="#FFCC00"/>
<path d="M16.87 32.74C24.5302 32.74 30.74 26.5302 30.74 18.87C30.74 11.2098 24.5302 5 16.87 5C9.20981 5 3 11.2098 3 18.87C3 26.5302 9.20981 32.74 16.87 32.74Z" fill="#FFCC00"/>
<path d="M30.68 20.16C30.57 21.44 30.28 22.67 29.83 23.83C28.84 26.44 27.07 28.67 24.81 30.25C24.59 30.4 24.37 30.55 24.15 30.69L11.74 25.66L12.98 23.73L15.54 22.55L16.84 21.95L18.93 19.21L19.04 19.13L19.36 18.88L19.69 18.63L20.62 17.16L21.78 16.23L23.03 14.45L25.19 17.08L27.59 18.01L29.76 20.18H30.68V20.16Z" fill="#F2F2F2"/>
<path d="M23.04 14.4299L22.65 17.4499L24.58 20.1599L25.43 21.5499L27.52 22.0099L29.38 24.7199C29.38 24.7199 19.94 22.1699 19.63 21.9299C19.32 21.6899 18.78 19.4299 18.78 19.4299L20.63 17.1299L23.04 14.4199V14.4299Z" fill="#2E2E2E"/>
<path d="M29.83 23.82C28.84 26.43 27.07 28.66 24.81 30.24C24.59 30.39 24.37 30.54 24.15 30.68C22.03 31.99 19.54 32.74 16.88 32.74C12.7 32.74 8.95 30.89 6.41 27.96C5.85 27.18 5.3 26.4 4.81 25.7L4.35 24.83C4.35 24.83 4.35 24.81 4.34 24.8C3.92 23.92 3.6 23 3.38 22.03L4.55 21.23L7.34 20.15L8.61 18.59V18.57L9.02 18.06L11.73 16.2L13.43 13.72L15.21 15.5L17.89 17.74L19.28 18.78L19.36 18.84L21.09 20.13C21.09 20.13 24.96 22.37 25.19 22.45C25.28 22.48 26.76 22.91 28.49 23.41C28.93 23.54 29.38 23.67 29.82 23.79L29.83 23.82Z" fill="#F2F2F2"/>
<path d="M24.8099 30.24C24.5899 30.39 24.3699 30.54 24.1499 30.68C22.0299 31.99 19.5399 32.74 16.8799 32.74C12.6999 32.74 8.94995 30.89 6.40995 27.96C5.78995 27.26 5.25995 26.5 4.80995 25.7L4.34995 24.83C4.34995 24.83 4.34995 24.81 4.33995 24.8C3.91995 23.92 3.59995 23 3.37995 22.03C3.35995 21.95 3.33995 21.87 3.31995 21.79L5.92995 20.49L8.59995 18.59V18.57L9.27995 17.48L13.4199 13.72L14.1599 16.7L13.6699 17.78L14.1899 19.18L15.2899 21.32L15.5099 22.52L15.6899 23.52L17.0799 24.16L19.5599 24.93L20.0399 26.08L22.5899 27.01C22.5899 27.01 23.6899 28.52 24.0499 29.51C24.1299 29.74 24.4099 29.99 24.7799 30.23L24.8099 30.24Z" fill="#2E2E2E"/>
<path d="M16.87 33.74C12.56 33.74 8.46 31.87 5.65 28.62C5 27.88 4.42 27.06 3.93 26.19L3.46 25.3C2.98 24.3 2.63 23.3 2.4 22.26C2.38 22.22 2.35 22.1 2.33 21.98C2.11 20.98 2 19.92 2 18.87C2 10.67 8.67 4 16.87 4C25.07 4 31.74 10.67 31.74 18.87C31.74 19.35 31.72 19.81 31.67 20.26C31.55 21.6 31.24 22.93 30.76 24.18C29.7 26.96 27.84 29.34 25.38 31.06C25.15 31.22 24.91 31.38 24.66 31.53C22.33 32.97 19.63 33.74 16.87 33.74ZM16.87 6C9.77 6 4 11.77 4 18.87C4 19.78 4.1 20.7 4.29 21.59C4.3 21.65 4.31 21.69 4.32 21.73C4.55 22.7 4.85 23.56 5.23 24.37L5.68 25.23C6.09 25.95 6.59 26.66 7.15 27.3C9.59 30.12 13.13 31.74 16.87 31.74C19.26 31.74 21.6 31.08 23.62 29.83C23.83 29.7 24.04 29.56 24.23 29.43C26.36 27.94 27.97 25.88 28.89 23.47C29.31 22.38 29.58 21.24 29.68 20.07C29.72 19.67 29.74 19.27 29.74 18.87C29.74 11.77 23.96 6 16.87 6Z" fill="#FFCC00"/>
</g>
<defs>
<clipPath id="clip0_203_13">
<rect width="217.24" height="35.65" fill="white" transform="translate(2 4)"/>
</clipPath>
</defs>
</svg>
