<svg width="308" height="51" viewBox="0 0 308 51" fill="none" xmlns="http://www.w3.org/2000/svg">
<g clip-path="url(#clip0_556_381)">
<path d="M55.4071 18.3974L67.1606 2.86133H73.5832L60.6955 20.0139L75.0293 39.5413H68.1814L56.9525 24.2198L53.0536 29.0265V39.5556H47.3824V2.86133H53.0536V17.9682C53.0536 19.642 52.8409 21.8594 52.6283 23.3615C53.4364 21.6877 54.4997 19.642 55.4071 18.3974Z" fill="#F2F2F2"/>
<path d="M75.0859 28.2252C75.0859 21.4872 80.431 16.4087 87.2222 16.4087C94.0134 16.4087 99.3017 21.4872 99.3017 28.2252C99.3017 34.9632 94.0559 40.0418 87.2222 40.0418C80.3885 40.0418 75.0859 34.9632 75.0859 28.2252ZM93.744 28.2252C93.744 24.0766 91.2345 21.1582 87.2222 21.1582C83.2099 21.1582 80.6437 24.0766 80.6437 28.2252C80.6437 32.3739 83.2099 35.3495 87.2222 35.3495C91.2345 35.3495 93.744 32.3882 93.744 28.2252Z" fill="#F2F2F2"/>
<path d="M103.697 16.8955H109.099L109.042 21.1586C110.545 17.5965 113.111 16.4663 115.564 16.4663C117.166 16.4663 118.286 16.8383 119.25 17.4391L117.435 22.346C116.585 21.9168 115.72 21.5878 114.5 21.5878C111.296 21.5878 109.099 23.4761 109.099 28.5547V39.5558H103.697V16.8955Z" fill="#F2F2F2"/>
<path d="M129.26 37.5101L120.058 16.8955H126.041L130.748 28.2257C131.5 29.9567 132.039 32.9179 132.039 32.9179C132.039 32.9179 132.521 29.9567 133.272 28.2257L138.078 16.8955H143.693L128.99 51.0004H123.433L129.26 37.5101Z" fill="#F2F2F2"/>
<path d="M149.874 22.8322H146.457V18.5833H149.874V10.3003C149.874 5.26469 152.299 2.86133 156.552 2.86133C159.175 2.86133 160.706 3.76259 161.897 4.96427L159.132 8.35474C158.636 7.85404 158.097 7.41056 157.006 7.41056C155.772 7.41056 154.879 8.15446 154.879 10.2574V18.5977H168.334V39.5699H163.287V22.8322H154.879V39.5556H149.888V22.8322H149.874ZM162.493 10.4577C162.493 8.55502 164.024 7.16736 165.81 7.16736C167.597 7.16736 169.128 8.56932 169.128 10.4577C169.128 12.4605 167.597 13.8052 165.81 13.8052C164.024 13.8052 162.493 12.4605 162.493 10.4577Z" fill="#F2F2F2"/>
<path d="M172.46 32.2166L177.011 29.6845C178.684 32.4884 180.825 34.7058 185.177 34.7058C188.792 34.7058 191.359 32.7459 191.359 29.7989C191.359 26.6803 189.26 25.3069 185.39 23.5759L183.036 22.5173C177.861 20.1998 174.714 17.5532 174.714 12.0169C174.714 6.48054 178.797 2.87549 184.709 2.87549C189.416 2.87549 192.606 4.67801 194.761 8.52626L190.423 11.2157C189.062 8.84099 187.488 7.72514 184.723 7.72514C181.959 7.72514 180.116 9.47044 180.116 11.9024C180.116 14.5919 181.633 15.8079 185.248 17.3958L187.545 18.4545C193.613 21.1439 196.86 24.0051 196.86 29.756C196.86 36.0362 191.997 39.6842 185.291 39.6842C178.584 39.6842 174.459 36.308 172.474 32.2452L172.46 32.2166Z" fill="#F2F2F2"/>
<path d="M201.297 17.0097H206.628L206.472 21.1297C207.89 18.383 210.499 16.5376 214.27 16.5376C219.927 16.5376 224.478 21.3443 224.478 28.0537C224.478 34.7631 219.87 39.67 214.171 39.67C210.513 39.67 207.89 37.8818 206.642 35.3926V50.385H201.312V17.0097H201.297ZM219.034 28.0394C219.034 24.0338 216.624 21.2871 212.81 21.2871C208.996 21.2871 206.43 24.0338 206.43 28.0394C206.43 32.045 208.939 34.9634 212.81 34.9634C216.68 34.9634 219.034 32.2167 219.034 28.0394Z" fill="#F2F2F2"/>
<path d="M227.725 28.0966C227.725 21.5017 232.956 16.5376 239.606 16.5376C246.255 16.5376 251.43 21.5017 251.43 28.0966C251.43 34.6916 246.298 39.6557 239.606 39.6557C232.914 39.6557 227.725 34.6916 227.725 28.0966ZM245.986 28.0966C245.986 24.0338 243.533 21.187 239.606 21.187C235.679 21.187 233.169 24.0338 233.169 28.0966C233.169 32.1595 235.679 35.0635 239.606 35.0635C243.533 35.0635 245.986 32.1595 245.986 28.0966Z" fill="#F2F2F2"/>
<path d="M255.726 17.0096H261.015L260.958 21.1869C262.418 17.6963 264.942 16.5947 267.338 16.5947C268.912 16.5947 270.003 16.9667 270.953 17.5389L269.167 22.3456C268.33 21.9165 267.494 21.6017 266.289 21.6017C263.155 21.6017 261 23.4472 261 28.4113V39.1835H255.712V17.0096H255.726Z" fill="#F2F2F2"/>
<path d="M275.873 31.6874V21.5017H272.584V17.0097H275.873V5.45068H281.161V17.0097H287.017V21.5017H281.161V31.8019C281.161 34.334 281.998 35.0779 283.359 35.0779C284.621 35.0779 285.4 34.4914 285.982 34.0193L288.491 37.61C287.385 38.6686 285.67 39.7273 282.834 39.7273C278.694 39.7273 275.873 37.61 275.873 31.7017V31.6874Z" fill="#F2F2F2"/>
<path d="M289.625 35.0632L293.241 32.5311C294.602 34.491 296.644 35.3779 299.153 35.3779C301.818 35.3779 303.024 34.4767 303.024 33.0032C303.024 31.215 301.407 30.9431 297.693 29.8845C294.446 28.9833 291.199 27.4525 291.199 23.075C291.199 18.6974 294.701 16.5229 299.054 16.5229C302.556 16.5229 305.023 17.9964 306.696 19.8562L303.605 22.9176C302.556 21.7016 301.039 20.7575 299.054 20.7575C297.069 20.7575 295.963 21.5013 295.963 22.8175C295.963 24.5056 297.324 24.8775 300.769 25.7788C304.229 26.68 307.986 28.0534 307.986 32.7457C307.986 36.551 305.689 39.6553 299.451 39.6553C294.432 39.6553 291.086 37.438 289.611 35.0632H289.625Z" fill="#F2F2F2"/>
<path d="M21.0826 41.1148C31.9431 41.1148 40.7473 32.2312 40.7473 21.2727C40.7473 10.3143 31.9431 1.43066 21.0826 1.43066C10.222 1.43066 1.41785 10.3143 1.41785 21.2727C1.41785 32.2312 10.222 41.1148 21.0826 41.1148Z" fill="#F2F2F2"/>
<path d="M40.6621 23.1183C40.5061 24.9494 40.095 26.709 39.457 28.3685C38.0534 32.1023 35.5439 35.2925 32.3397 37.5528C32.0278 37.7674 31.7159 37.982 31.4039 38.1822L13.8092 30.9865L15.5673 28.2254L19.1968 26.5374L21.0399 25.679L24.0031 21.7592L24.159 21.6448L24.6127 21.2872L25.0806 20.9295L26.3992 18.8266L28.0438 17.4961L29.816 14.9497L32.8784 18.7121L36.2811 20.0426L39.3577 23.1469H40.6621V23.1183Z" fill="#F2F2F2"/>
<path d="M29.8727 16.1084L32.3397 19.1412L32.4531 19.2843L32.6233 19.3558L35.8842 20.629L38.8473 23.6189L39.06 23.8335H39.8681C39.6838 25.307 39.3152 26.7376 38.7906 28.1109C37.4437 31.6874 35.0618 34.7488 31.9285 36.9662C31.73 37.1093 31.5316 37.238 31.3189 37.3811L14.8442 30.6431L16.021 28.7833L19.4662 27.1811L21.3093 26.3227L21.4653 26.2512L21.5787 26.1081L24.4852 22.2599L24.5702 22.2027L24.5986 22.1741L25.0239 21.845L25.4918 21.4874L25.591 21.4015L25.6619 21.2871L26.9237 19.2843L28.4691 18.0254L28.5542 17.9682L28.6109 17.8823L29.8444 16.1084M29.8019 14.921L28.0296 17.4675L26.385 18.7979L25.0665 20.9008L24.5986 21.2585L24.1449 21.6161L23.9889 21.7449L21.0258 25.6647L19.1826 26.523L15.5531 28.2111L13.795 30.9721L31.3898 38.1679C31.7159 37.9676 32.0278 37.753 32.3255 37.5384C35.5297 35.2924 38.0392 32.1022 39.4428 28.3541C40.0808 26.6947 40.492 24.9351 40.6479 23.1039H39.3436L36.267 19.9996L32.8643 18.6692L29.8019 14.9067V14.921Z" fill="#2E2E2E"/>
<path d="M29.8302 14.921L29.2772 19.2414L32.0136 23.1182L33.2187 25.1067L36.1819 25.7648L38.8189 29.6417C38.8189 29.6417 25.435 25.9937 24.9955 25.6504C24.556 25.307 23.7904 22.0739 23.7904 22.0739L26.4133 18.7836L29.8302 14.9067V14.921Z" fill="#2E2E2E"/>
<path d="M39.3436 28.4971C37.94 32.2309 35.4305 35.4211 32.2263 37.6814C31.9144 37.896 31.6025 38.1106 31.2906 38.3109C28.2849 40.1849 24.7546 41.2579 20.9833 41.2579C15.0569 41.2579 9.74021 38.6113 6.13903 34.4197C5.34507 33.3039 4.56529 32.188 3.87057 31.1866L3.21839 29.942C3.21839 29.942 3.21839 29.9134 3.20421 29.8991C2.60874 28.6402 2.15505 27.3241 1.84314 25.9364L3.50195 24.792L7.45757 23.2469L9.25816 21.0152V20.9866L9.83946 20.257L13.6817 17.5962L16.0919 14.0483L18.6156 16.5948L22.4152 19.7993L24.3859 21.2871L24.4994 21.3729L26.9521 23.2183C26.9521 23.2183 32.439 26.4228 32.7651 26.5373C32.8927 26.5802 34.991 27.1953 37.4438 27.9106C38.0676 28.0966 38.7056 28.2826 39.3294 28.4542L39.3436 28.4971Z" fill="#F2F2F2"/>
<path d="M16.3187 15.0353L18.2894 17.0238L22.1175 20.2569L24.0882 21.7447L24.2016 21.8305L26.6544 23.676L26.6827 23.7046H26.7253C29.2489 25.2067 32.3397 26.9949 32.6516 27.095C32.7792 27.1379 33.8426 27.4527 37.3729 28.4827L37.4579 28.5113C37.8124 28.6114 38.1526 28.7116 38.5071 28.8117C37.1177 32.0877 34.8634 34.8774 31.9286 36.9374C31.6308 37.152 31.3331 37.3523 31.0212 37.5382C28.0438 39.398 24.5986 40.3851 21.0825 40.3851C15.5815 40.3851 10.364 37.9817 6.81955 33.8473C6.03977 32.7458 5.27416 31.6586 4.57945 30.6572L3.94144 29.4412C3.44522 28.3825 3.04824 27.2667 2.7505 26.1079L3.92727 25.2925L7.79782 23.7761L7.96796 23.7046L8.08138 23.5615L9.83944 21.3727L9.88197 21.3298L9.91033 21.3012L10.4349 20.6574L14.192 18.0538L14.3055 17.9823L14.3764 17.8678L16.3045 15.0353M16.2053 13.9194L13.7951 17.4673L9.95286 20.1281L9.37157 20.8577V20.8863L7.57098 23.118L3.61535 24.6631L1.95654 25.8075C2.26846 27.1809 2.72215 28.5113 3.31762 29.7702C3.31762 29.7702 3.31762 29.7988 3.3318 29.8131L3.98398 31.0577C4.69287 32.0734 5.47265 33.1893 6.25244 34.2908C9.83944 38.4824 15.1561 41.129 21.0967 41.129C24.8822 41.129 28.4124 40.056 31.404 38.182C31.7301 37.9817 32.042 37.7671 32.3397 37.5525C35.5439 35.3065 38.0534 32.1163 39.457 28.3682C38.819 28.1823 38.181 27.9963 37.5713 27.8246C35.1328 27.1093 33.0344 26.4942 32.8926 26.4513C32.5666 26.3368 27.0797 23.1323 27.0797 23.1323L24.627 21.2869L24.5135 21.2011L22.5428 19.7133L18.7431 16.5088L16.2195 13.9624L16.2053 13.9194Z" fill="#2E2E2E"/>
<path d="M32.3397 37.5384C32.0278 37.753 31.7159 37.9675 31.404 38.1678C28.3982 40.0419 24.868 41.1148 21.0966 41.1148C15.1703 41.1148 9.8536 38.4682 6.25242 34.2767C5.37339 33.2753 4.62197 32.188 3.98396 31.0436L3.33178 29.799C3.33178 29.799 3.33178 29.7703 3.3176 29.756C2.72213 28.4971 2.26844 27.181 1.95653 25.7934C1.92817 25.6789 1.89982 25.5645 1.87146 25.45L5.57188 23.5903L9.35737 20.8722V20.8436L10.3215 19.2842L16.1911 13.9053L17.2403 18.1684L16.5456 19.7134L17.2828 21.7162L18.8424 24.7776L19.1543 26.4943L19.4095 27.9249L21.3802 28.8405L24.8963 29.942L25.5769 31.5872L29.1922 32.9176C29.1922 32.9176 30.7518 35.0778 31.2622 36.4941C31.3756 36.8231 31.7726 37.1807 32.2972 37.5241L32.3397 37.5384Z" fill="#2E2E2E"/>
<path d="M21.0825 42.5453C14.9718 42.5453 9.1589 39.8701 5.17492 35.2208C4.25336 34.1621 3.43104 32.9891 2.73633 31.7445L2.06997 30.4712C1.38943 29.0407 0.893206 27.6101 0.567115 26.1223C0.538759 26.0651 0.496225 25.8934 0.46787 25.7217C0.155957 24.2912 0 22.7748 0 21.2726C0 9.54194 9.45664 0 21.0825 0C32.7083 0 42.165 9.54194 42.165 21.2726C42.165 21.9593 42.1366 22.6174 42.0657 23.2612C41.8956 25.1781 41.4561 27.0808 40.7755 28.869C39.2727 32.846 36.6356 36.2508 33.1479 38.7114C32.8218 38.9403 32.4815 39.1691 32.127 39.3837C28.8236 41.4438 24.9956 42.5453 21.0825 42.5453ZM21.0825 2.86115C11.0162 2.86115 2.83557 11.1156 2.83557 21.2726C2.83557 22.5745 2.97735 23.8906 3.24673 25.1638C3.26091 25.2496 3.27509 25.3069 3.28927 25.3641C3.61536 26.7518 4.04069 27.982 4.57945 29.1408L5.21746 30.3711C5.79875 31.4011 6.50764 32.4168 7.3016 33.3324C10.761 37.3666 15.78 39.6842 21.0825 39.6842C24.471 39.6842 27.7886 38.74 30.6525 36.9518C30.9503 36.7658 31.248 36.5655 31.5174 36.3795C34.5373 34.248 36.8199 31.301 38.1243 27.8533C38.7198 26.294 39.1026 24.6631 39.2443 22.9893C39.301 22.4171 39.3294 21.8449 39.3294 21.2726C39.3294 11.1156 31.1346 2.86115 21.0825 2.86115Z" fill="#F2F2F2"/>
</g>
<defs>
<clipPath id="clip0_556_381">
<rect width="308" height="51" fill="white"/>
</clipPath>
</defs>
</svg>
