<?xml version="1.0" encoding="utf-8"?>
<!-- Generator: Adobe Illustrator 26.5.0, SVG Export Plug-In . SVG Version: 6.00 Build 0)  -->
<svg version="1.1" id="Capa_1" xmlns="http://www.w3.org/2000/svg" xmlns:xlink="http://www.w3.org/1999/xlink" x="0px" y="0px"
	 viewBox="0 0 800 800" style="enable-background:new 0 0 800 800;" xml:space="preserve" className="icon">
<style type="text/css">
	.st0{fill:#FFCC00;}
</style>
<g>
	<path class="st0" d="M796.2,124.5c-3.9-5.8-10.6-9.2-18.3-9.2c-4.2,0-8.8,1-13.6,2.9l-45.6,18.2c-15.6,6.2-37.1,20.4-49,32.3
		L419.7,418.7c-14.5,2-27.9,8.7-38.4,19.2c-5.3,5.3-5.3,13.9,0,19.2l0,0L127.2,711.2c-7.7,7.7-11.9,17.9-11.9,28.8
		c0,10.9,4.2,21.2,11.9,28.8l19.2,19.2c7.7,7.7,17.9,11.9,28.8,11.9c10.9,0,21.1-4.2,28.8-11.9L458.2,534c2.7,2.7,6.1,4,9.6,4
		c3.5,0,7-1.3,9.6-4c10.5-10.5,17.2-23.9,19.2-38.4l249.9-249.9c11.9-11.9,26.1-33.4,32.3-49l18.3-45.6
		C802.3,137.9,799.5,129.3,796.2,124.5z M467.8,486l-38.4-38.4l2.3-2.3c10,0.5,19.4,4.7,26.6,11.9c7.2,7.2,11.3,16.5,11.9,26.6
		L467.8,486z M184.9,768.9c-2.5,2.5-6,3.9-9.6,3.9c-3.7,0-7.1-1.4-9.6-3.9l-19.2-19.2c-2.5-2.5-3.9-6-3.9-9.6c0-3.7,1.4-7.1,3.9-9.6
		l263.7-263.7l38.4,38.4L184.9,768.9z M753.6,186.6c-4.9,12.3-17,30.5-26.3,39.9L492.6,461.1c-3.4-8.6-8.5-16.5-15.2-23.2
		c-6.7-6.7-14.6-11.9-23.2-15.2L688.8,188c9.4-9.3,27.6-21.4,39.9-26.3l41.4-16.6L753.6,186.6z"/>
	<path class="st0" d="M381.3,534c-2.5-2.5-6-4-9.6-4c-3.6,0-7.1,1.4-9.6,4c-2.5,2.5-4,6-4,9.6c0,3.6,1.4,7.1,4,9.6
		c2.5,2.5,6,4,9.6,4c3.6,0,7.1-1.5,9.6-4c2.5-2.5,4-6,4-9.6C385.3,540,383.8,536.5,381.3,534z"/>
	<path class="st0" d="M352.5,422.7c3.5,0,7-1.3,9.6-4c10.5-10.5,17.2-23.9,19.2-38.4l249.9-249.9c11.9-11.9,26.1-33.4,32.3-49
		l18.2-45.6c5.3-13.1,2.4-21.7-0.8-26.5C677,3.4,670.3,0,662.6,0c-4.2,0-8.8,1-13.6,2.9l-45.6,18.3c-15.6,6.2-37.1,20.4-49,32.3
		L304.4,303.4c-14.1,2-27.6,8.4-38.4,19.2c-5.3,5.3-5.3,13.9,0,19.2l0,0L11.9,595.9C4.2,603.6,0,613.8,0,624.7s4.2,21.2,11.9,28.8
		l19.2,19.2c7.7,7.7,17.9,11.9,28.8,11.9s21.1-4.2,28.8-11.9l254.1-254.1C345.5,421.3,349,422.7,352.5,422.7z M316.2,330
		c9.7,0.5,19.2,4.4,26.6,11.8c7.2,7.2,11.3,16.5,11.9,26.6l-2.3,2.3L314,332.2L316.2,330z M573.5,72.7c9.4-9.3,27.6-21.4,39.9-26.3
		l41.4-16.6l-16.6,41.4c-4.9,12.3-17,30.5-26.3,39.9L377.3,345.8c-3.4-8.6-8.5-16.5-15.2-23.2c-6.8-6.8-14.8-11.9-23.2-15.2
		L573.5,72.7z M69.6,653.5c-2.5,2.5-6,3.9-9.6,3.9s-7.1-1.4-9.6-3.9l-19.2-19.2c-2.5-2.5-3.9-6-3.9-9.6c0-3.7,1.4-7.1,3.9-9.6
		l263.7-263.7l38.4,38.4L69.6,653.5z"/>
	<path class="st0" d="M266,418.7c-2.5-2.5-6-4-9.6-4c-3.6,0-7.1,1.4-9.6,4c-2.5,2.5-4,6-4,9.6c0,3.6,1.5,7.1,4,9.6
		c2.5,2.5,6,4,9.6,4c3.6,0,7.1-1.4,9.6-4s4-6,4-9.6C270,424.7,268.5,421.2,266,418.7z"/>
</g>
</svg>
