<?xml version="1.0" encoding="utf-8"?>
<!-- Generator: Adobe Illustrator 26.5.0, SVG Export Plug-In . SVG Version: 6.00 Build 0)  -->
<svg version="1.1" id="Capa_1" xmlns="http://www.w3.org/2000/svg" xmlns:xlink="http://www.w3.org/1999/xlink" x="0px" y="0px"
	 viewBox="0 0 224 800" style="enable-background:new 0 0 224 800;" xml:space="preserve" className="icon">
<style type="text/css">
	.st0{fill:#FFCC00;}
</style>
<path class="st0" d="M223.6,116.5c0.4-3.4,0.5-6.9,0.3-10.3C220.8,47.1,171.8,0,112,0C52.2,0,3.2,47,0,106c-0.2,3.5,0,7.1,0.4,10.6
	l7.5,53.8C29,321.1,29.2,473.9,8.4,624.6l-6.5,47.9c-5.9,43.4,13.3,86.9,50.4,110.3C69.6,793.7,90.1,800,112,800
	c21.9,0,42.3-6.3,59.6-17.2c37.1-23.4,56.3-66.9,50.4-110.3l-6.5-47.9c-20.8-150.7-20.6-303.5,0.5-454.1L223.6,116.5z M200,111.3
	l-7.8,55.8c-2,14.1-3.8,28.3-5.4,42.5c-8-18.8-26.6-31.7-47.6-31.7c-3.4,0-6.9,0.3-10.2,1l-59.8,12c-12.9,2.6-24.1,9.8-31.8,20.5
	c-1.7-14.8-3.5-29.5-5.6-44.2l-3-21.6l170.1-48.2C199.6,101.9,200,106.5,200,111.3z M198.4,677.1L31.8,724.4
	c-2.6-5.6-4.6-11.5-5.9-17.7l170-48.2L198.4,677.1z M24.8,682l7.5-54.1c1.7-12.2,3.2-24.4,4.6-36.6c9.5,13.5,25.1,22.2,42.4,22.2
	c3.4,0,6.8-0.3,10.2-1l59.8-12c13.6-2.7,25.3-10.6,32.9-22.1c1-1.6,2-3.2,2.9-4.8c1.9,18.2,4.1,36.3,6.6,54.4l0.9,6.5L24.8,682z
	 M109.8,263.8l-9.6-54.7l33.4-6.7c1.8-0.4,3.7-0.5,5.5-0.5c13.1,0,24.6,9.4,27.2,22.3c1.5,7.3,0,14.7-4.1,20.8
	c-4.1,6.2-10.4,10.4-17.6,11.8L109.8,263.8z M76.7,213.9l9.6,54.7l-1.5,0.3c-1.8,0.4-3.7,0.5-5.5,0.5c-13.1,0-24.6-9.4-27.2-22.3
	c-1.5-7.3,0-14.7,4.1-20.8c4.1-6.2,10.4-10.4,17.6-11.8L76.7,213.9z M79.2,293.4c3.4,0,6.8-0.3,10.2-1l59.8-12
	c13.4-2.7,25-10.4,32.6-21.7c-7.3,86.3-7.9,173.1-1.7,259.5c-9.6-12.5-24.6-20.4-41.1-20.4c-3.4,0-6.9,0.3-10.2,1l-59.8,12
	c-9.9,2-18.8,6.7-25.9,13.6c6.1-81.7,6.2-163.7,0.3-245.3C53,288,65.6,293.4,79.2,293.4z M70.6,535.3L83.7,589
	c-1.5,0.2-3,0.4-4.5,0.4c-13.1,0-24.6-9.4-27.2-22.3c-1.5-7.3,0-14.7,4.1-20.8C59.7,541,64.7,537.2,70.6,535.3z M107.3,584.3
	l-13.2-53.9l39.5-7.9c1.8-0.4,3.7-0.5,5.5-0.5c13.1,0,24.6,9.4,27.2,22.3c1.5,7.3,0,14.7-4.1,20.8c-4.1,6.2-10.4,10.4-17.6,11.8
	L107.3,584.3z M112,24c35.1,0,65.4,20.6,79.6,50.3L25.3,121.5l-1.4-10.2C24.3,63.1,63.7,24,112,24z M112,776
	c-26.5,0-50.4-11.8-66.5-30.4L198.9,702C192.1,743.9,155.7,776,112,776z"/>
</svg>
