<svg width="434" height="19" viewBox="0 0 434 19" fill="none" xmlns="http://www.w3.org/2000/svg">
<path d="M71.0163 16.3416L70.8892 14.8143L71.0163 16.3416ZM2 2.49693L0.864951 1.4671C0.296192 2.09398 0.343301 3.06322 0.970171 3.63198L2 2.49693ZM216.893 10.4128L216.846 11.9447C217.693 11.9703 218.399 11.3052 218.425 10.4591L216.893 10.4128ZM216.908 9.90127L218.44 9.85493C218.415 9.02691 217.737 8.36866 216.908 8.36866C216.08 8.36866 215.401 9.02691 215.376 9.85493L216.908 9.90127ZM216.924 10.4128L215.392 10.4591C215.417 11.3052 216.124 11.9703 216.97 11.9447L216.924 10.4128ZM362.8 16.3416L362.673 17.8689L362.8 16.3416ZM431.817 2.49693L432.846 3.63198C433.473 3.06323 433.52 2.094 432.952 1.46713L431.817 2.49693ZM431.13 1.74023L432.265 0.710429C431.992 0.409386 431.61 0.229173 431.204 0.209435C430.798 0.189698 430.401 0.332053 430.1 0.605183L431.13 1.74023ZM362.885 15.3234L362.758 16.8507L362.885 15.3234ZM216.908 9.39105L216.862 10.923C216.893 10.9239 216.924 10.9239 216.954 10.923L216.908 9.39105ZM70.9316 15.3234L71.0586 16.8507L70.9316 15.3234ZM2.68655 1.74023L3.71638 0.605185C3.41535 0.332058 3.01814 0.189702 2.61215 0.209434C2.20616 0.229167 1.82463 0.409372 1.5515 0.710405L2.68655 1.74023ZM70.8892 14.8143C31.8545 18.0607 9.29238 7.0439 3.02983 1.36188L0.970171 3.63198C8.05379 10.0589 31.5602 21.161 71.1433 17.8689L70.8892 14.8143ZM216.939 8.88088C192.374 8.13796 119.93 10.7355 70.8892 14.8143L71.1433 17.8689C120.127 13.795 192.443 11.2067 216.846 11.9447L216.939 8.88088ZM215.376 9.85493L215.361 10.3664L218.425 10.4591L218.44 9.9476L215.376 9.85493ZM215.376 9.9476L215.392 10.4591L218.456 10.3664L218.44 9.85493L215.376 9.9476ZM216.97 11.9447C241.373 11.2067 313.69 13.795 362.673 17.8689L362.927 14.8143C313.886 10.7355 241.442 8.13796 216.877 8.88088L216.97 11.9447ZM362.673 17.8689C402.256 21.161 425.763 10.0589 432.846 3.63198L430.787 1.36189C424.524 7.04389 401.962 18.0607 362.927 14.8143L362.673 17.8689ZM432.952 1.46713L432.265 0.710429L429.995 2.77004L430.681 3.52674L432.952 1.46713ZM430.1 0.605183C424.111 6.03895 401.864 17.0273 363.012 13.796L362.758 16.8507C402.158 20.1276 425.35 9.05389 432.16 2.87529L430.1 0.605183ZM363.012 13.796C313.962 9.71657 241.496 7.11615 216.862 7.85914L216.954 10.923C241.427 10.1848 313.766 12.7761 362.758 16.8507L363.012 13.796ZM71.0586 16.8507C120.051 12.7761 192.39 10.1848 216.862 10.923L216.954 7.85914C192.321 7.11615 119.855 9.71657 70.8045 13.796L71.0586 16.8507ZM1.65672 2.87528C8.46661 9.05389 31.6582 20.1276 71.0586 16.8507L70.8045 13.796C31.9527 17.0273 9.70532 6.03895 3.71638 0.605185L1.65672 2.87528ZM3.13505 3.52676L3.8216 2.77006L1.5515 0.710405L0.864951 1.4671L3.13505 3.52676Z" fill="#FFCC00"/>
</svg>
