<svg width="436" height="50" viewBox="0 0 436 50" fill="none" xmlns="http://www.w3.org/2000/svg">
<path opacity="0.2" d="M408.339 8.37817L410.403 9.78925C410.416 9.77044 410.428 9.75145 410.441 9.7323L408.339 8.37817ZM411.397 4.09296L413.24 5.78228C413.688 5.29351 413.923 4.64679 413.895 3.98437C413.866 3.32196 413.575 2.69811 413.086 2.25008L411.397 4.09296ZM408.339 8.37884L406.275 6.96777C406.262 6.98659 406.249 7.00559 406.237 7.02475L408.339 8.37884ZM407.017 10.4061L404.936 9.02082L404.936 9.02088L407.017 10.4061ZM400.067 18.7421L401.755 20.5858L401.755 20.5858L400.067 18.7421ZM366.63 30.8115L366.814 33.3048L366.814 33.3048L366.63 30.8115ZM220.904 37.9492L218.405 38.0248C218.425 38.6875 218.708 39.3152 219.191 39.7696C219.673 40.2241 220.317 40.4681 220.98 40.4481L220.904 37.9492ZM220.873 36.9284L220.798 34.4295C219.418 34.4712 218.333 35.6238 218.374 37.0039L220.873 36.9284ZM366.556 29.7929L366.739 32.2862L366.556 29.7929ZM399.377 17.9889L397.689 16.1452L397.689 16.1453L399.377 17.9889ZM406.167 9.84021L404.086 8.45494L404.086 8.45495L406.167 9.84021ZM407.43 7.90225L405.336 6.53589C405.333 6.54003 405.331 6.54418 405.328 6.54833L407.43 7.90225ZM407.433 7.89776L409.526 9.26412C409.529 9.25999 409.532 9.25585 409.534 9.2517L407.433 7.89776ZM410.644 3.40283L412.333 1.55995C411.845 1.11191 411.198 0.87639 410.535 0.905192C409.873 0.933994 409.249 1.22476 408.801 1.71353L410.644 3.40283ZM33.2571 8.38017L31.1556 9.73431L31.1588 9.73929L33.2571 8.38017ZM30.1992 4.09496L28.5099 2.25208C28.0211 2.70011 27.7304 3.32395 27.7016 3.98637C27.6728 4.64878 27.9083 5.29551 28.3563 5.78427L30.1992 4.09496ZM33.2572 8.38024L35.3587 7.0261L35.3554 7.02112L33.2572 8.38024ZM34.5789 10.4081L36.6601 9.02286L36.6601 9.02286L34.5789 10.4081ZM41.5291 18.7441L43.2176 16.9004L43.2176 16.9004L41.5291 18.7441ZM74.9656 30.8135L74.7823 33.3068L74.9656 30.8135ZM220.692 37.9512L220.617 40.4501C221.279 40.4701 221.923 40.2261 222.406 39.7716C222.888 39.3172 223.171 38.6895 223.191 38.0268L220.692 37.9512ZM220.723 36.9304L223.222 37.0059C223.264 35.6258 222.179 34.4732 220.799 34.4315L220.723 36.9304ZM75.0405 29.7949L74.8572 32.2882L74.8572 32.2882L75.0405 29.7949ZM42.2189 17.9909L40.5305 19.8346L40.5305 19.8346L42.2189 17.9909ZM35.4291 9.84221L37.5102 8.45694L37.5102 8.45694L35.4291 9.84221ZM34.1636 7.89984L36.2652 6.54589L36.2615 6.5401L34.1636 7.89984ZM34.1635 7.89976L32.0619 9.25371L32.0656 9.2595L34.1635 7.89976ZM30.9521 3.40483L32.795 1.71552C32.3469 1.22675 31.7231 0.93599 31.0607 0.90719C30.3983 0.878389 29.7515 1.11391 29.2628 1.56194L30.9521 3.40483ZM410.441 9.7323C411.594 7.94184 412.416 6.68144 413.24 5.78228L409.554 2.40365C408.381 3.6835 407.315 5.3523 406.238 7.02405L410.441 9.7323ZM410.402 9.78992L410.403 9.78925L406.275 6.9671L406.275 6.96777L410.402 9.78992ZM409.098 11.7914C409.582 11.065 410.028 10.3723 410.44 9.73293L406.237 7.02475C405.823 7.66753 405.396 8.33001 404.936 9.02082L409.098 11.7914ZM401.755 20.5858C405.042 17.5756 407.32 14.4628 409.098 11.7914L404.936 9.02088C403.262 11.5359 401.242 14.276 398.379 16.8985L401.755 20.5858ZM366.814 33.3048C384.724 31.9878 395.106 26.6754 401.755 20.5858L398.379 16.8984C392.701 22.0976 383.447 27.0682 366.447 28.3182L366.814 33.3048ZM220.98 40.4481C245.495 39.7067 317.71 36.9153 366.814 33.3048L366.447 28.3182C317.451 31.9209 245.32 34.7097 220.828 35.4504L220.98 40.4481ZM218.374 37.0039L218.405 38.0248L223.403 37.8737L223.372 36.8528L218.374 37.0039ZM366.372 27.2997C317.398 30.9007 245.284 33.689 220.798 34.4295L220.949 39.4272C245.459 38.6859 317.658 35.8951 366.739 32.2862L366.372 27.2997ZM397.689 16.1453C392.21 21.1626 383.187 26.0633 366.372 27.2997L366.739 32.2862C384.464 30.9829 394.615 25.7403 401.066 19.8326L397.689 16.1453ZM404.086 8.45495C402.433 10.9381 400.466 13.6021 397.689 16.1452L401.066 19.8326C404.266 16.9016 406.491 13.8649 408.248 11.2255L404.086 8.45495ZM405.328 6.54833C404.924 7.17607 404.515 7.81004 404.086 8.45494L408.248 11.2255C408.701 10.5446 409.13 9.87979 409.531 9.25617L405.328 6.54833ZM405.339 6.5314L405.336 6.53589L409.523 9.26861L409.526 9.26412L405.339 6.5314ZM408.801 1.71353C407.565 3.0623 406.429 4.83976 405.331 6.54383L409.534 9.2517C410.707 7.43122 411.599 6.06058 412.487 5.09213L408.801 1.71353ZM413.086 2.25008L412.333 1.55995L408.955 5.24572L409.708 5.93585L413.086 2.25008ZM35.3586 7.02604C34.2814 5.35429 33.2153 3.6855 32.0421 2.40565L28.3563 5.78427C29.1806 6.68344 30.0019 7.94384 31.1556 9.7343L35.3586 7.02604ZM35.3554 7.02112L35.3554 7.02106L31.1588 9.73929L31.1589 9.73935L35.3554 7.02112ZM36.6601 9.02286C36.2001 8.33179 35.773 7.66909 35.3587 7.02611L31.1557 9.73437C31.5677 10.3739 32.0142 11.0668 32.4978 11.7934L36.6601 9.02286ZM43.2176 16.9004C40.354 14.278 38.3341 11.5379 36.6601 9.02286L32.4978 11.7934C34.276 14.4648 36.5537 17.5776 39.8407 20.5878L43.2176 16.9004ZM75.149 28.3202C58.1487 27.0702 48.8948 22.0996 43.2176 16.9004L39.8407 20.5878C46.4902 26.6774 56.8717 31.9898 74.7823 33.3068L75.149 28.3202ZM220.768 35.4524C196.276 34.7117 124.145 31.9229 75.149 28.3202L74.7823 33.3068C123.886 36.9173 196.101 39.7087 220.617 40.4501L220.768 35.4524ZM218.224 36.8548L218.193 37.8757L223.191 38.0268L223.222 37.0059L218.224 36.8548ZM74.8572 32.2882C123.939 35.8971 196.137 38.6879 220.647 39.4292L220.799 34.4315C196.312 33.691 124.198 30.9027 75.2239 27.3017L74.8572 32.2882ZM40.5305 19.8346C46.9813 25.7423 57.1325 30.9849 74.8572 32.2882L75.2239 27.3017C58.4096 26.0653 49.3861 21.1646 43.9073 16.1472L40.5305 19.8346ZM33.348 11.2275C35.1049 13.8669 37.3299 16.9036 40.5305 19.8346L43.9073 16.1472C41.1303 13.6041 39.1631 10.9401 37.5102 8.45694L33.348 11.2275ZM32.0619 9.25378C32.4645 9.8787 32.8937 10.545 33.348 11.2275L37.5102 8.45694C37.0799 7.81049 36.6705 7.17505 36.2652 6.5459L32.0619 9.25378ZM32.0656 9.2595L32.0657 9.25958L36.2615 6.5401L36.2614 6.54002L32.0656 9.2595ZM29.1092 5.09414C29.9969 6.06258 30.8891 7.4332 32.0619 9.2537L36.2651 6.54582C35.1673 4.84177 34.0314 3.06429 32.795 1.71552L29.1092 5.09414ZM31.8885 5.93785L32.6414 5.24772L29.2628 1.56194L28.5099 2.25208L31.8885 5.93785Z" fill="#FFCC00"/>
<path opacity="0.4" d="M18.6675 17.6833L16.8194 19.3669L16.8194 19.3669L18.6675 17.6833ZM15.934 14.8511L14.0825 13.1713C13.6369 13.6623 13.4047 14.3102 13.4369 14.9725C13.4691 15.6347 13.763 16.2571 14.2541 16.7026L15.934 14.8511ZM19.0832 18.1402L20.9389 16.4649L20.9329 16.4582L19.0832 18.1402ZM19.0833 18.1402L17.2276 19.8155L17.2336 19.8221L19.0833 18.1402ZM22.2449 21.5361L24.0394 19.7954L24.0394 19.7954L22.2449 21.5361ZM32.8411 30.3428L31.4911 32.4469L31.4911 32.4469L32.8411 30.3428ZM74.4998 38.9707L74.707 41.4621L74.4998 38.9707ZM209.036 38.5984L209.123 36.0999L209.123 36.0999L209.036 38.5984ZM220.148 38.9722L220.072 41.4711C220.735 41.4911 221.378 41.247 221.861 40.7926C222.344 40.3381 222.627 39.7105 222.647 39.0478L220.148 38.9722ZM220.179 37.9513L222.677 38.0269C222.719 36.6468 221.634 35.4942 220.254 35.4525L220.179 37.9513ZM209.083 37.578L209.17 35.0795L209.17 35.0795L209.083 37.578ZM74.4151 37.9529L74.2079 35.4615L74.4151 37.9529ZM33.3926 29.4831L34.7425 27.3789L34.7425 27.3789L33.3926 29.4831ZM22.978 20.825L21.1835 22.5656L21.1835 22.5656L22.978 20.825ZM19.8398 17.4541L21.6895 15.7722L21.6891 15.7718L19.8398 17.4541ZM19.8397 17.454L17.9901 19.136L17.9905 19.1364L19.8397 17.454ZM19.4225 16.9955L21.2706 15.3119L21.2706 15.3119L19.4225 16.9955ZM16.6202 14.0947L18.3001 12.2432C17.809 11.7977 17.1611 11.5655 16.4989 11.5977C15.8366 11.6299 15.2143 11.9238 14.7687 12.4149L16.6202 14.0947ZM422.381 17.6833L424.229 19.3669L424.229 19.3669L422.381 17.6833ZM425.115 14.8511L426.794 16.7026C427.285 16.2571 427.579 15.6347 427.612 14.9725C427.644 14.3102 427.412 13.6623 426.966 13.1712L425.115 14.8511ZM421.965 18.1402L423.815 19.8221L423.815 19.8221L421.965 18.1402ZM418.804 21.5361L417.009 19.7954L417.009 19.7954L418.804 21.5361ZM408.207 30.3428L409.557 32.4469L409.557 32.4469L408.207 30.3428ZM366.549 38.9707L366.756 36.4793L366.549 38.9707ZM232.012 38.5984L231.925 36.0999L231.925 36.0999L232.012 38.5984ZM220.901 38.9722L218.402 39.0478C218.422 39.7105 218.704 40.3381 219.187 40.7926C219.67 41.247 220.314 41.4911 220.976 41.4711L220.901 38.9722ZM220.87 37.9513L220.794 35.4525C219.414 35.4942 218.329 36.6468 218.371 38.0269L220.87 37.9513ZM231.965 37.578L231.878 35.0795L231.878 35.0795L231.965 37.578ZM366.633 37.9529L366.426 40.4443L366.426 40.4443L366.633 37.9529ZM407.656 29.4831L409.006 31.5873L409.006 31.5873L407.656 29.4831ZM418.071 20.825L419.865 22.5656L419.865 22.5656L418.071 20.825ZM421.209 17.4541L419.359 15.7721L419.359 15.7722L421.209 17.4541ZM421.236 17.4242L423.085 19.1062L423.086 19.1061L421.236 17.4242ZM421.626 16.9955L419.778 15.3118L419.778 15.312L421.626 16.9955ZM424.428 14.0947L426.28 12.4149C425.352 11.3923 423.771 11.3155 422.748 12.2432L424.428 14.0947ZM20.5156 15.9997C19.4841 14.8674 18.5123 13.8148 17.6138 12.9996L14.2541 16.7026C14.947 17.3313 15.7612 18.2053 16.8194 19.3669L20.5156 15.9997ZM20.9329 16.4582C20.7919 16.3033 20.6526 16.1501 20.5156 15.9997L16.8194 19.3669C16.9546 19.5153 17.0924 19.6668 17.2336 19.8221L20.9329 16.4582ZM20.9389 16.465L20.9389 16.4649L17.2275 19.8154L17.2276 19.8155L20.9389 16.465ZM24.0394 19.7954C22.8927 18.6133 21.8713 17.4902 20.9329 16.4583L17.2336 19.8221C18.1679 20.8495 19.2401 22.029 20.4504 23.2767L24.0394 19.7954ZM34.191 28.2386C29.9476 25.5162 26.6726 22.5101 24.0394 19.7954L20.4504 23.2767C23.2466 26.1594 26.8187 29.4493 31.4911 32.4469L34.191 28.2386ZM74.2926 36.4793C55.1066 38.075 42.634 33.6552 34.191 28.2386L31.4911 32.4469C40.9023 38.4848 54.4786 43.1444 74.707 41.4621L74.2926 36.4793ZM209.123 36.0999C178.313 35.0244 117.396 32.8944 74.2926 36.4793L74.707 41.4621C117.457 37.9066 178.053 40.0184 208.949 41.0969L209.123 36.0999ZM220.223 36.4733C217.207 36.3821 213.465 36.2515 209.123 36.0999L208.949 41.0969C213.287 41.2483 217.041 41.3794 220.072 41.4711L220.223 36.4733ZM217.68 37.8758L217.649 38.8966L222.647 39.0478L222.677 38.0269L217.68 37.8758ZM208.996 40.0765C213.329 40.2278 217.079 40.3587 220.103 40.4502L220.254 35.4525C217.244 35.3614 213.508 35.231 209.17 35.0795L208.996 40.0765ZM74.6223 40.4443C117.44 36.8831 178.112 38.9981 208.996 40.0765L209.17 35.0795C178.372 34.0041 117.38 31.8709 74.2079 35.4615L74.6223 40.4443ZM32.0426 31.5873C41.256 37.4982 54.6068 42.1089 74.6223 40.4443L74.2079 35.4615C55.2349 37.0394 42.9877 32.6687 34.7425 27.3789L32.0426 31.5873ZM21.1835 22.5656C23.9464 25.414 27.4578 28.6459 32.0426 31.5873L34.7425 27.3789C30.5867 24.7128 27.3724 21.7647 24.7725 19.0843L21.1835 22.5656ZM17.9902 19.1361C18.9249 20.1639 19.9855 21.3305 21.1835 22.5656L24.7725 19.0843C23.6381 17.9149 22.6283 16.8047 21.6895 15.7722L17.9902 19.1361ZM17.9905 19.1364L17.9906 19.1365L21.6891 15.7718L21.689 15.7717L17.9905 19.1364ZM17.5744 18.6791C17.7104 18.8284 17.8487 18.9804 17.9901 19.136L21.6894 15.7721C21.5482 15.6169 21.4084 15.4631 21.2706 15.3119L17.5744 18.6791ZM14.9404 15.9462C15.6754 16.6131 16.5218 17.5237 17.5744 18.6791L21.2706 15.3119C20.2443 14.1853 19.2405 13.0964 18.3001 12.2432L14.9404 15.9462ZM17.7855 16.531L18.4717 15.7746L14.7687 12.4149L14.0825 13.1713L17.7855 16.531ZM424.229 19.3669C425.287 18.2053 426.101 17.3313 426.794 16.7026L423.435 12.9996C422.536 13.8148 421.564 14.8674 420.533 15.9997L424.229 19.3669ZM423.815 19.8221C423.956 19.6668 424.094 19.5153 424.229 19.3669L420.533 15.9996C420.396 16.15 420.257 16.3032 420.116 16.4583L423.815 19.8221ZM420.598 23.2767C421.808 22.029 422.881 20.8495 423.815 19.8221L420.116 16.4583C419.177 17.4902 418.156 18.6133 417.009 19.7954L420.598 23.2767ZM409.557 32.4469C414.23 29.4493 417.802 26.1594 420.598 23.2767L417.009 19.7954C414.376 22.5101 411.101 25.5162 406.858 28.2386L409.557 32.4469ZM366.342 41.4621C386.57 43.1444 400.146 38.4848 409.557 32.4469L406.858 28.2386C398.415 33.6552 385.942 38.075 366.756 36.4793L366.342 41.4621ZM232.1 41.0969C262.996 40.0184 323.592 37.9066 366.342 41.4621L366.756 36.4793C323.652 32.8944 262.736 35.0244 231.925 36.0999L232.1 41.0969ZM220.976 41.4711C224.007 41.3794 227.762 41.2483 232.1 41.0969L231.925 36.0999C227.583 36.2515 223.842 36.3821 220.825 36.4733L220.976 41.4711ZM218.371 38.0269L218.402 39.0478L223.4 38.8966L223.369 37.8758L218.371 38.0269ZM231.878 35.0795C227.541 35.231 223.805 35.3614 220.794 35.4525L220.946 40.4502C223.97 40.3587 227.719 40.2278 232.053 40.0765L231.878 35.0795ZM366.841 35.4615C323.669 31.8709 262.677 34.0041 231.878 35.0795L232.053 40.0765C262.936 38.9981 323.608 36.8831 366.426 40.4443L366.841 35.4615ZM406.306 27.3789C398.061 32.6687 385.814 37.0394 366.841 35.4615L366.426 40.4443C386.442 42.1089 399.792 37.4982 409.006 31.5873L406.306 27.3789ZM416.276 19.0843C413.676 21.7647 410.462 24.7128 406.306 27.3789L409.006 31.5873C413.591 28.6459 417.102 25.414 419.865 22.5656L416.276 19.0843ZM419.359 15.7722C418.42 16.8046 417.41 17.9149 416.276 19.0843L419.865 22.5656C421.063 21.3305 422.124 20.1639 423.058 19.1361L419.359 15.7722ZM419.386 15.7421L419.359 15.7721L423.058 19.1362L423.085 19.1062L419.386 15.7421ZM419.778 15.312C419.649 15.4535 419.518 15.5971 419.386 15.7422L423.086 19.1061C423.217 18.961 423.347 18.8188 423.474 18.679L419.778 15.312ZM422.748 12.2432C421.808 13.0964 420.804 14.1853 419.778 15.3118L423.474 18.6791C424.527 17.5237 425.373 16.6131 426.108 15.9462L422.748 12.2432ZM426.966 13.1712L426.28 12.4149L422.577 15.7746L423.263 16.531L426.966 13.1712Z" fill="#FFCC00"/>
<path d="M71.9879 45.9201L72.1951 48.4115L71.9879 45.9201ZM2.99988 32.0811L1.14838 30.4012C0.70285 30.8923 0.470638 31.5402 0.502826 32.2025C0.535013 32.8647 0.828965 33.4871 1.32001 33.9326L2.99988 32.0811ZM217.805 39.9937L217.729 42.4926C219.109 42.5343 220.262 41.4494 220.304 40.0693L217.805 39.9937ZM217.82 39.4832L220.319 39.4076C220.278 38.0569 219.172 36.9832 217.82 36.9832C216.469 36.9832 215.362 38.0569 215.321 39.4076L217.82 39.4832ZM217.836 39.9937L215.337 40.0693C215.379 41.4494 216.531 42.5343 217.911 42.4926L217.836 39.9937ZM363.653 45.9201L363.445 48.4115L363.445 48.4115L363.653 45.9201ZM432.641 32.0811L434.32 33.9326C434.811 33.4871 435.105 32.8647 435.138 32.2025C435.17 31.5402 434.938 30.8923 434.492 30.4012L432.641 32.0811ZM431.954 31.3247L433.806 29.6448C432.878 28.6223 431.297 28.5454 430.274 29.4732L431.954 31.3247ZM363.737 44.9023L363.944 42.4109L363.944 42.4109L363.737 44.9023ZM217.82 38.9724L217.745 41.4713C217.795 41.4728 217.845 41.4728 217.896 41.4713L217.82 38.9724ZM71.9032 44.9023L72.1105 47.3937L72.1105 47.3937L71.9032 44.9023ZM3.68615 31.3247L5.36601 29.4732C4.34346 28.5454 2.76241 28.6223 1.83465 29.6448L3.68615 31.3247ZM71.7807 43.4287C32.935 46.6595 10.6804 35.674 4.67974 30.2296L1.32001 33.9326C8.66003 40.5922 32.4551 51.7166 72.1951 48.4115L71.7807 43.4287ZM217.88 37.4949C193.275 36.7507 120.82 39.3501 71.7807 43.4287L72.1951 48.4115C121.14 44.3408 193.387 41.7564 217.729 42.4926L217.88 37.4949ZM215.321 39.4076L215.306 39.9181L220.304 40.0693L220.319 39.5587L215.321 39.4076ZM215.321 39.5587L215.337 40.0693L220.335 39.9181L220.319 39.4076L215.321 39.5587ZM217.911 42.4926C242.253 41.7564 314.5 44.3408 363.445 48.4115L363.86 43.4287C314.82 39.3501 242.366 36.7507 217.76 37.4949L217.911 42.4926ZM363.445 48.4115C403.185 51.7166 426.98 40.5922 434.32 33.9326L430.961 30.2296C424.96 35.674 402.705 46.6595 363.86 43.4287L363.445 48.4115ZM434.492 30.4012L433.806 29.6448L430.103 33.0046L430.789 33.761L434.492 30.4012ZM430.274 29.4732C424.547 34.6695 402.607 45.6264 363.944 42.4109L363.53 47.3937C403.087 50.6836 426.568 39.5875 433.634 33.1762L430.274 29.4732ZM363.944 42.4109C314.896 38.3316 242.419 35.7293 217.745 36.4735L217.896 41.4713C242.307 40.735 314.576 43.3222 363.53 47.3937L363.944 42.4109ZM72.1105 47.3937C121.064 43.3222 193.334 40.735 217.745 41.4713L217.896 36.4735C193.221 35.7293 120.745 38.3316 71.696 42.4109L72.1105 47.3937ZM2.00629 33.1762C9.07265 39.5875 32.553 50.6836 72.1105 47.3937L71.696 42.4109C33.0333 45.6264 11.0932 34.6695 5.36601 29.4732L2.00629 33.1762ZM4.85138 33.761L5.53765 33.0046L1.83465 29.6448L1.14838 30.4012L4.85138 33.761Z" fill="#FFCC00"/>
</svg>
