<svg width="430" height="86" viewBox="0 0 430 86" fill="none" xmlns="http://www.w3.org/2000/svg">
<path d="M205.942 13.0489H205.957L205.973 13.0488C227.798 12.7783 262.593 11.9671 296.06 10.412C329.265 8.86899 361.372 6.58599 378.137 3.3328C387.16 3.7575 398.483 5.73908 408.113 9.25397C412.977 11.0294 417.322 13.1645 420.702 15.6233C423.947 17.9837 426.156 20.5341 427.209 23.2123V59.964C426.973 62.6354 424.659 67.66 417.28 72.5195C409.91 77.3727 397.638 81.9325 378.043 83.5527C356.804 80.2766 312.185 73.8411 205.942 73.8411C120.726 73.8411 73.3916 78.6919 60.1761 81.1694C53.1817 82.2027 41.8426 82.3154 30.7346 79.277C19.7942 76.2846 9.33641 70.317 3.25033 59.4383V26.3007C4.77057 20.2633 14.9665 5.88647 46.0266 3.33142C50.5576 3.7606 55.7171 4.33872 61.621 5.00025C89.3356 8.10567 133.452 13.0489 205.942 13.0489Z" stroke="#FFCC00" stroke-width="4.86394"/>
</svg>
