<svg xmlns="http://www.w3.org/2000/svg" version="1.1" xmlns:xlink="http://www.w3.org/1999/xlink" xmlns:svgjs="http://svgjs.com/svgjs" width="30" height="30"><svg width="30" height="30" viewBox="0 0 30 30" fill="none" xmlns="http://www.w3.org/2000/svg">
<g clip-path="url(#clip0_446_621)">
<path d="M14.87 28.74C22.5302 28.74 28.74 22.5302 28.74 14.87C28.74 7.20981 22.5302 1 14.87 1C7.20981 1 1 7.20981 1 14.87C1 22.5302 7.20981 28.74 14.87 28.74Z" fill="#FFCC00"></path>
<path d="M28.68 16.16C28.57 17.44 28.28 18.67 27.83 19.83C26.84 22.44 25.07 24.67 22.81 26.25C22.59 26.4 22.37 26.55 22.15 26.69L9.73999 21.66L10.98 19.73L13.54 18.55L14.84 17.95L16.93 15.21L17.04 15.13L17.36 14.88L17.69 14.63L18.62 13.16L19.78 12.23L21.03 10.45L23.19 13.08L25.59 14.01L27.76 16.18H28.68V16.16Z" fill="#F2F2F2"></path>
<path d="M21.04 10.4299L20.65 13.4499L22.58 16.1599L23.43 17.5499L25.52 18.0099L27.38 20.7199C27.38 20.7199 17.94 18.1699 17.63 17.9299C17.32 17.6899 16.78 15.4299 16.78 15.4299L18.63 13.1299L21.04 10.4199V10.4299Z" fill="#2E2E2E"></path>
<path d="M27.83 19.82C26.84 22.43 25.07 24.66 22.81 26.24C22.59 26.39 22.37 26.54 22.15 26.68C20.03 27.99 17.54 28.74 14.88 28.74C10.7 28.74 6.95 26.89 4.41 23.96C3.85 23.18 3.3 22.4 2.81 21.7L2.35 20.83C2.35 20.83 2.35 20.81 2.34 20.8C1.92 19.92 1.6 19 1.38 18.03L2.55 17.23L5.34 16.15L6.61 14.59V14.57L7.02 14.06L9.73 12.2L11.43 9.71997L13.21 11.5L15.89 13.74L17.28 14.78L17.36 14.84L19.09 16.13C19.09 16.13 22.96 18.37 23.19 18.45C23.28 18.48 24.76 18.91 26.49 19.41C26.93 19.54 27.38 19.67 27.82 19.79L27.83 19.82Z" fill="#F2F2F2"></path>
<path d="M22.8099 26.24C22.5899 26.39 22.3699 26.54 22.1499 26.68C20.0299 27.99 17.5399 28.74 14.8799 28.74C10.6999 28.74 6.94995 26.89 4.40995 23.96C3.78995 23.26 3.25995 22.5 2.80995 21.7L2.34995 20.83C2.34995 20.83 2.34995 20.81 2.33995 20.8C1.91995 19.92 1.59995 19 1.37995 18.03C1.35995 17.95 1.33995 17.87 1.31995 17.79L3.92995 16.49L6.59995 14.59V14.57L7.27995 13.48L11.4199 9.71997L12.1599 12.7L11.6699 13.78L12.1899 15.18L13.2899 17.32L13.5099 18.52L13.6899 19.52L15.0799 20.16L17.5599 20.93L18.0399 22.08L20.5899 23.01C20.5899 23.01 21.6899 24.52 22.0499 25.51C22.1299 25.74 22.4099 25.99 22.7799 26.23L22.8099 26.24Z" fill="#2E2E2E"></path>
<path d="M14.87 29.74C10.56 29.74 6.46 27.87 3.65 24.62C3 23.88 2.42 23.06 1.93 22.19L1.46 21.3C0.98 20.3 0.63 19.3 0.4 18.26C0.38 18.22 0.35 18.1 0.33 17.98C0.11 16.98 0 15.92 0 14.87C0 6.67 6.67 0 14.87 0C23.07 0 29.74 6.67 29.74 14.87C29.74 15.35 29.72 15.81 29.67 16.26C29.55 17.6 29.24 18.93 28.76 20.18C27.7 22.96 25.84 25.34 23.38 27.06C23.15 27.22 22.91 27.38 22.66 27.53C20.33 28.97 17.63 29.74 14.87 29.74ZM14.87 2C7.77 2 2 7.77 2 14.87C2 15.78 2.1 16.7 2.29 17.59C2.3 17.65 2.31 17.69 2.32 17.73C2.55 18.7 2.85 19.56 3.23 20.37L3.68 21.23C4.09 21.95 4.59 22.66 5.15 23.3C7.59 26.12 11.13 27.74 14.87 27.74C17.26 27.74 19.6 27.08 21.62 25.83C21.83 25.7 22.04 25.56 22.23 25.43C24.36 23.94 25.97 21.88 26.89 19.47C27.31 18.38 27.58 17.24 27.68 16.07C27.72 15.67 27.74 15.27 27.74 14.87C27.74 7.77 21.96 2 14.87 2Z" fill="#FFCC00"></path>
</g>
<defs>
<clipPath id="SvgjsClipPath1000">
<rect width="29.75" height="29.74" fill="white"></rect>
</clipPath>
</defs>
</svg><style>@media (prefers-color-scheme: light) { :root { filter: none; } }
</style></svg>